<svg width="2447" height="597" viewBox="0 0 2447 597" fill="none" xmlns="http://www.w3.org/2000/svg">
<g clip-path="url(#clip0_5_2)">
<path opacity="0.96" fill-rule="evenodd" clip-rule="evenodd" d="M533.5 116.5C533.57 118.027 532.91 119.027 531.5 119.5C488.5 74.995 436.17 47.828 374.5 38C280.25 26.649 199.92 54.649 133.5 122C148.01 133.341 163.84 142.507 181 149.5C226.69 100.583 283.19 75.416 350.5 74C293.69 86.22 246.36 114.053 208.5 157.5C229.36 163.695 250.7 166.862 272.5 167C300.46 136.186 334.8 116.52 375.5 108C344.28 121.879 317.62 141.879 295.5 168C298.33 168.167 301.17 168.333 304 168.5C318.86 167.587 333.69 166.753 348.5 166C327.82 173.837 306.48 179.171 284.5 182C267.22 206.398 255.22 233.232 248.5 262.5C280.52 256.437 311.69 247.437 342 235.5C342.17 235.833 342.33 236.167 342.5 236.5C312.47 257.93 279.63 273.93 244 284.5C240.59 309.57 241.09 334.57 245.5 359.5C294.25 342.8 339.25 319.3 380.5 289C381.76 288.02 383.09 287.68 384.5 288C348.14 330.69 304.14 363.02 252.5 385C264.79 414.75 280.29 442.59 299 468.5C299.48 469.45 299.65 470.45 299.5 471.5C292.16 471.67 284.83 471.5 277.5 471C258.98 447.13 243.64 421.3 231.5 393.5C206.09 401.28 180.09 405.78 153.5 407C159.94 427.15 167.27 446.99 175.5 466.5C167.44 466.55 159.44 465.38 151.5 463C141.77 445.03 134.1 426.2 128.5 406.5C110.3 405.13 92.3 402.47 74.5 398.5C81.42 420.84 91.42 441.67 104.5 461C78.73 454.29 54.392 443.95 31.5 430C14.898 398.19 4.73099 364.35 0.999989 328.5C-7.59601 219.236 30.238 130.069 114.5 61C186.24 7.97796 266.24 -10.688 354.5 4.99996C427.79 20.89 487.46 58.057 533.5 116.5ZM118.5 139.5C133.16 150.171 148.82 159.337 165.5 167C143.35 195.799 128.02 227.966 119.5 263.5C101.65 260.16 84.65 254.328 68.5 246C67.94 245.275 67.61 244.442 67.5 243.5C77.62 205.265 94.62 170.598 118.5 139.5ZM192.5 176.5C214.21 181.428 236.21 183.928 258.5 184C239.78 208.956 227.11 236.79 220.5 267.5C206.36 268.8 192.19 269.8 178 270.5C168.43 270.12 158.93 269.29 149.5 268C158.62 234.94 172.95 204.44 192.5 176.5ZM61.5 272.5C78.57 279.97 96.24 285.64 114.5 289.5C109.67 318.72 111.34 347.56 119.5 376C100.81 374.99 82.81 370.83 65.5 363.5C62.364 352.43 60.531 341.1 60 329.5C59.142 310.46 59.642 291.46 61.5 272.5ZM214.5 290.5C215.69 290.97 216.36 291.97 216.5 293.5C214.05 318.14 215.71 342.47 221.5 366.5C210.2 370.53 198.53 373.36 186.5 375C173.23 376.88 159.89 378.04 146.5 378.5C140.62 350.64 139.96 322.64 144.5 294.5C168.15 296.23 191.48 294.9 214.5 290.5Z" fill="#2B4A91"/>
<path opacity="0.981" fill-rule="evenodd" clip-rule="evenodd" d="M531.5 119.5C532.91 119.027 533.57 118.027 533.5 116.5C540.53 107.463 547.2 98.13 553.5 88.5C574.7 124.268 589.54 162.601 598 203.5C608.53 253.045 611.7 303.05 607.5 353.5C593.42 343.04 579.26 332.71 565 322.5C567.36 290.58 568.03 258.58 567 226.5C565.98 210.376 563.98 194.376 561 178.5C559.03 223.85 553.7 268.85 545 313.5C528 385.84 495 449.51 446 504.5C360.04 593.45 258.21 618.28 140.5 579C79.19 554.66 31.024 514.83 -4 459.5C77.34 523.17 167.51 539.67 266.5 509C350.27 476.57 410.77 419.4 448 337.5C453.02 326.46 457.19 315.13 460.5 303.5C425.56 310.59 390.56 317.09 355.5 323C405.15 270.02 453.32 215.857 500 160.5C510.99 147.164 521.49 133.497 531.5 119.5Z" fill="#D4391D"/>
<path opacity="0.958" fill-rule="evenodd" clip-rule="evenodd" d="M2381.5 122.5C2389.83 122.5 2398.17 122.5 2406.5 122.5C2406.5 124.833 2406.5 127.167 2406.5 129.5C2417.83 129.5 2429.17 129.5 2440.5 129.5C2440.5 136.167 2440.5 142.833 2440.5 149.5C2423.5 149.333 2406.5 149.5 2389.5 150C2386.41 156.683 2383.74 163.516 2381.5 170.5C2392.51 170.667 2403.51 170.5 2414.5 170C2412.8 166.363 2411.8 162.53 2411.5 158.5C2419.17 158.5 2426.83 158.5 2434.5 158.5C2437.5 169.173 2440.5 179.839 2443.5 190.5C2411.83 190.5 2380.17 190.5 2348.5 190.5C2348.5 183.833 2348.5 177.167 2348.5 170.5C2351.5 170.5 2354.5 170.5 2357.5 170.5C2359.74 163.516 2362.41 156.683 2365.5 150C2360.18 149.501 2354.84 149.334 2349.5 149.5C2349.5 142.833 2349.5 136.167 2349.5 129.5C2360.17 129.5 2370.83 129.5 2381.5 129.5C2381.5 127.167 2381.5 124.833 2381.5 122.5Z" fill="#D4391C"/>
<path opacity="0.944" fill-rule="evenodd" clip-rule="evenodd" d="M2168.5 123.5C2174.83 123.5 2181.17 123.5 2187.5 123.5C2187.5 131.167 2187.5 138.833 2187.5 146.5C2191.17 146.5 2194.83 146.5 2198.5 146.5C2198.5 153.833 2198.5 161.167 2198.5 168.5C2194.83 168.5 2191.17 168.5 2187.5 168.5C2187.33 179.172 2187.5 189.839 2188 200.5C2191.49 199.566 2194.99 198.566 2198.5 197.5C2199.5 205.138 2199.83 212.804 2199.5 220.5C2195.52 221.295 2191.52 221.962 2187.5 222.5C2187.33 237.17 2187.5 251.837 2188 266.5C2202.93 233.116 2210.43 198.116 2210.5 161.5C2206.77 161.823 2203.11 161.489 2199.5 160.5C2201.58 148.233 2203.24 135.899 2204.5 123.5C2211.83 123.5 2219.17 123.5 2226.5 123.5C2225.83 128.833 2225.17 134.167 2224.5 139.5C2245.17 139.5 2265.83 139.5 2286.5 139.5C2285.99 182.169 2285.32 224.836 2284.5 267.5C2274.17 267.5 2263.83 267.5 2253.5 267.5C2253.5 260.5 2253.5 253.5 2253.5 246.5C2256.83 246.5 2260.17 246.5 2263.5 246.5C2263.93 218.159 2264.6 189.825 2265.5 161.5C2263.17 161.5 2260.83 161.5 2258.5 161.5C2259.1 197.485 2253.6 232.485 2242 266.5C2234.58 267.65 2227.08 267.81 2219.5 267C2232.46 233.055 2239.13 197.888 2239.5 161.5C2236.17 161.5 2232.83 161.5 2229.5 161.5C2230.6 197.884 2224.27 232.884 2210.5 266.5C2196.18 267.5 2181.85 267.83 2167.5 267.5C2167.67 253.829 2167.5 240.163 2167 226.5C2159.31 228.738 2151.48 230.404 2143.5 231.5C2143.33 224.159 2143.5 216.826 2144 209.5C2151.74 207.518 2159.58 205.851 2167.5 204.5C2167.5 192.5 2167.5 180.5 2167.5 168.5C2165.83 168.5 2164.17 168.5 2162.5 168.5C2161.97 176.512 2161.3 184.512 2160.5 192.5C2154.46 192.829 2148.46 192.496 2142.5 191.5C2145.93 169.99 2147.26 148.324 2146.5 126.5C2152.17 126.5 2157.83 126.5 2163.5 126.5C2163.5 133.167 2163.5 139.833 2163.5 146.5C2165.17 146.5 2166.83 146.5 2168.5 146.5C2168.5 138.833 2168.5 131.167 2168.5 123.5Z" fill="#D4391C"/>
<path opacity="0.925" fill-rule="evenodd" clip-rule="evenodd" d="M2304.5 123.5C2316.55 126.244 2328.55 129.244 2340.5 132.5C2341.83 140.167 2341.83 147.833 2340.5 155.5C2328.57 152.184 2316.57 149.184 2304.5 146.5C2304.5 138.833 2304.5 131.167 2304.5 123.5Z" fill="#D4391C"/>
<path opacity="0.954" fill-rule="evenodd" clip-rule="evenodd" d="M1836.5 124.5C1882.17 124.5 1927.83 124.5 1973.5 124.5C1973.5 171.833 1973.5 219.167 1973.5 266.5C1927.83 266.5 1882.17 266.5 1836.5 266.5C1836.5 219.167 1836.5 171.833 1836.5 124.5ZM1857.5 144.5C1888.83 144.5 1920.17 144.5 1951.5 144.5C1951.5 178.5 1951.5 212.5 1951.5 246.5C1920.17 246.5 1888.83 246.5 1857.5 246.5C1857.5 212.5 1857.5 178.5 1857.5 144.5Z" fill="#D4391C"/>
<path opacity="0.955" fill-rule="evenodd" clip-rule="evenodd" d="M776.5 125.5C789.03 124.945 801.03 127.112 812.5 132C826.31 141.062 831.81 153.896 829 170.5C825.91 182.593 818.75 191.426 807.5 197C834.12 210.525 840.95 230.691 828 257.5C818.67 267.41 807.17 272.91 793.5 274C776.96 276.19 761.3 273.52 746.5 266C732.55 255.474 727.71 241.641 732 224.5C736.32 211.512 744.82 202.346 757.5 197C737.15 185.967 730.98 169.467 739 147.5C742.5 140 748 134.5 755.5 131C762.42 128.354 769.42 126.521 776.5 125.5ZM779.5 149.5C797.13 149.777 803.96 158.444 800 175.5C795.78 181.531 789.94 184.865 782.5 185.5C765.74 181.976 760.57 172.309 767 156.5C770.47 152.748 774.64 150.414 779.5 149.5ZM780.5 210.5C800.59 212.032 807.75 222.365 802 241.5C792.58 251.107 781.75 252.94 769.5 247C760.31 239.395 758.48 230.229 764 219.5C768.52 214.495 774.02 211.495 780.5 210.5Z" fill="#D4391C"/>
<path opacity="0.962" fill-rule="evenodd" clip-rule="evenodd" d="M897.5 125.5C924.87 124.059 942.37 136.392 950 162.5C956.75 190.803 955.75 218.803 947 246.5C934.65 270.53 915.15 279.36 888.5 273C872.43 268.6 861.93 258.43 857 242.5C851.82 222.828 850.15 202.828 852 182.5C852.61 163.317 859.77 147.15 873.5 134C881 129.447 889 126.613 897.5 125.5ZM899.5 154.5C907.89 153.778 914.06 157.111 918 164.5C924.94 187.385 925.27 210.385 919 233.5C915.17 243.497 908.01 247.331 897.5 245C890.33 241.824 886.16 236.324 885 228.5C882.55 213.603 881.89 198.603 883 183.5C883.63 175.301 885.97 167.635 890 160.5C892.84 157.837 896.01 155.837 899.5 154.5Z" fill="#D4391C"/>
<path opacity="0.956" fill-rule="evenodd" clip-rule="evenodd" d="M1016.5 125.5C1031.77 124.318 1045.77 127.818 1058.5 136C1068.26 145.862 1071.76 157.695 1069 171.5C1065.47 183.035 1058.3 191.535 1047.5 197C1074.46 210.409 1081.29 230.575 1068 257.5C1058.67 267.41 1047.17 272.91 1033.5 274C1015.03 276.65 998.03 272.98 982.5 263C971.94 252.181 968.44 239.348 972 224.5C976.32 211.512 984.82 202.346 997.5 197C977.15 185.979 970.99 169.479 979 147.5C983.95 138.892 991.12 132.725 1000.5 129C1005.91 127.504 1011.24 126.337 1016.5 125.5ZM1020.5 149.5C1037.93 150.03 1044.43 158.697 1040 175.5C1035.78 181.531 1029.94 184.865 1022.5 185.5C1005.74 181.984 1000.58 172.318 1007 156.5C1010.76 152.539 1015.26 150.206 1020.5 149.5ZM1020.5 210.5C1041.06 211.641 1048.23 221.974 1042 241.5C1032.62 251.104 1021.79 252.937 1009.5 247C1000.31 239.405 998.48 230.239 1004 219.5C1008.52 214.495 1014.02 211.495 1020.5 210.5Z" fill="#D4391C"/>
<path opacity="0.959" fill-rule="evenodd" clip-rule="evenodd" d="M1163.5 125.5C1180.03 125.144 1196.03 127.811 1211.5 133.5C1212.5 142.141 1212.83 150.808 1212.5 159.5C1202.66 156.707 1192.66 154.54 1182.5 153C1141.08 151.424 1122.91 171.257 1128 212.5C1133.98 232.141 1147.15 243.641 1167.5 247C1178.4 248.256 1189.06 247.256 1199.5 244C1203.9 242.13 1208.23 240.297 1212.5 238.5C1212.83 248.19 1212.5 257.86 1211.5 267.5C1205.78 270.24 1199.78 272.07 1193.5 273C1168.17 277.62 1144.17 273.95 1121.5 262C1097.2 244.825 1087.04 221.325 1091 191.5C1094.71 159.119 1112.21 138.286 1143.5 129C1150.25 127.502 1156.92 126.335 1163.5 125.5Z" fill="#D4391C"/>
<path opacity="0.958" fill-rule="evenodd" clip-rule="evenodd" d="M1584.5 125.5C1601.03 125.144 1617.03 127.811 1632.5 133.5C1633.5 141.807 1633.83 150.14 1633.5 158.5C1624.92 156.356 1616.25 154.522 1607.5 153C1586.24 148.928 1568.41 154.761 1554 170.5C1542.43 190.787 1542.76 210.787 1555 230.5C1561.31 237.741 1569.14 242.574 1578.5 245C1588.44 246.365 1598.44 246.865 1608.5 246.5C1608.5 236.167 1608.5 225.833 1608.5 215.5C1602.83 215.5 1597.17 215.5 1591.5 215.5C1591.5 206.833 1591.5 198.167 1591.5 189.5C1606.83 189.5 1622.17 189.5 1637.5 189.5C1637.83 215.074 1637.49 240.574 1636.5 266C1615.88 274.36 1594.54 276.69 1572.5 273C1529.03 263.19 1508.86 236.019 1512 191.5C1517.31 159.867 1535.14 139.033 1565.5 129C1571.91 127.438 1578.24 126.271 1584.5 125.5Z" fill="#D4391C"/>
<path opacity="0.963" fill-rule="evenodd" clip-rule="evenodd" d="M1721.5 125.5C1745.38 123.847 1765.88 131.18 1783 147.5C1797.78 167.383 1803.45 189.716 1800 214.5C1793.06 254.765 1769.06 274.76 1728 274.5C1680.41 273.41 1655.91 249.077 1654.5 201.5C1655.1 156.591 1677.43 131.257 1721.5 125.5ZM1720.5 152.5C1745.06 151.878 1759.23 163.878 1763 188.5C1766.07 205.202 1763.41 220.869 1755 235.5C1746.04 246.56 1734.54 250.727 1720.5 248C1708.7 245.537 1700.53 238.703 1696 227.5C1690.03 210.18 1690.03 192.847 1696 175.5C1700.54 163.786 1708.71 156.119 1720.5 152.5Z" fill="#D4391C"/>
<path opacity="0.95" fill-rule="evenodd" clip-rule="evenodd" d="M1992.5 125.5C2010.17 125.5 2027.83 125.5 2045.5 125.5C2045.62 146.139 2042.62 166.306 2036.5 186C2046.77 207.003 2047.1 228.17 2037.5 249.5C2029.53 250.498 2021.53 250.831 2013.5 250.5C2013.5 256.167 2013.5 261.83 2013.5 267.5C2006.5 267.5 1999.5 267.5 1992.5 267.5C1992.5 220.167 1992.5 172.833 1992.5 125.5ZM2013.5 146.5C2016.83 146.5 2020.17 146.5 2023.5 146.5C2021.59 160.121 2018.43 173.455 2014 186.5C2013.5 173.171 2013.33 159.837 2013.5 146.5ZM2013.5 187.5C2027.69 207.963 2027.85 228.629 2014 249.5C2013.5 228.836 2013.33 208.169 2013.5 187.5Z" fill="#D4391C"/>
<path opacity="0.975" fill-rule="evenodd" clip-rule="evenodd" d="M2054.5 125.5C2078.5 125.5 2102.5 125.5 2126.5 125.5C2126.5 132.167 2126.5 138.833 2126.5 145.5C2102.5 145.5 2078.5 145.5 2054.5 145.5C2054.5 138.833 2054.5 132.167 2054.5 125.5Z" fill="#D4391C"/>
<path opacity="0.969" fill-rule="evenodd" clip-rule="evenodd" d="M1267.5 128.5C1286.5 128.5 1305.5 128.5 1324.5 128.5C1337.85 175.91 1351.52 223.243 1365.5 270.5C1353.17 271.83 1340.83 271.83 1328.5 270.5C1324.69 257.61 1321.36 244.608 1318.5 231.5C1303.49 231.167 1288.49 231.501 1273.5 232.5C1269.75 245.334 1266.08 258.17 1262.5 271C1250.17 271.67 1237.83 271.67 1225.5 271C1239.6 223.524 1253.6 176.024 1267.5 128.5ZM1295.5 149.5C1300.89 168.222 1306.23 187.055 1311.5 206C1301.17 206.5 1290.84 206.666 1280.5 206.5C1285.3 187.444 1290.3 168.444 1295.5 149.5Z" fill="#D4391C"/>
<path opacity="0.972" fill-rule="evenodd" clip-rule="evenodd" d="M1381.5 128.5C1408.54 128.044 1435.54 128.544 1462.5 130C1488.08 137.619 1498.58 154.786 1494 181.5C1490.19 198.64 1479.69 209.14 1462.5 213C1478.31 230.17 1490.98 249.503 1500.5 271C1489.48 271.83 1478.48 271.67 1467.5 270.5C1458.27 249.849 1445.93 231.349 1430.5 215C1425.51 214.501 1420.51 214.334 1415.5 214.5C1415.5 233.5 1415.5 252.5 1415.5 271.5C1404.17 271.5 1392.83 271.5 1381.5 271.5C1381.5 223.833 1381.5 176.167 1381.5 128.5ZM1415.5 152.5C1428.21 152.126 1440.88 152.626 1453.5 154C1465.44 159.483 1468.94 168.316 1464 180.5C1461.51 183.832 1458.34 186.332 1454.5 188C1441.57 189.443 1428.57 189.943 1415.5 189.5C1415.5 177.167 1415.5 164.833 1415.5 152.5Z" fill="#D4391C"/>
<path opacity="0.948" fill-rule="evenodd" clip-rule="evenodd" d="M1865.5 152.5C1891.83 152.5 1918.17 152.5 1944.5 152.5C1944.5 158.833 1944.5 165.167 1944.5 171.5C1934.5 171.5 1924.5 171.5 1914.5 171.5C1914.5 175.5 1914.5 179.5 1914.5 183.5C1923.5 183.5 1932.5 183.5 1941.5 183.5C1941.5 189.5 1941.5 195.5 1941.5 201.5C1932.5 201.5 1923.5 201.5 1914.5 201.5C1914.5 207.833 1914.5 214.167 1914.5 220.5C1917.17 220.5 1919.83 220.5 1922.5 220.5C1921.72 215.516 1921.06 210.516 1920.5 205.5C1926.17 205.5 1931.83 205.5 1937.5 205.5C1938.06 210.516 1938.72 215.516 1939.5 220.5C1941.83 220.5 1944.17 220.5 1946.5 220.5C1946.5 226.833 1946.5 233.167 1946.5 239.5C1918.83 239.5 1891.17 239.5 1863.5 239.5C1863.5 233.167 1863.5 226.833 1863.5 220.5C1873.5 220.5 1883.5 220.5 1893.5 220.5C1893.5 214.167 1893.5 207.833 1893.5 201.5C1885.17 201.5 1876.83 201.5 1868.5 201.5C1868.5 195.5 1868.5 189.5 1868.5 183.5C1876.83 183.5 1885.17 183.5 1893.5 183.5C1893.5 179.5 1893.5 175.5 1893.5 171.5C1884.17 171.5 1874.83 171.5 1865.5 171.5C1865.5 165.167 1865.5 158.833 1865.5 152.5Z" fill="#D4391C"/>
<path opacity="0.941" fill-rule="evenodd" clip-rule="evenodd" d="M2301.5 160.5C2314.42 163.814 2327.42 166.981 2340.5 170C2341.48 177.413 2341.81 184.913 2341.5 192.5C2328.48 189.829 2315.48 186.996 2302.5 184C2301.52 176.253 2301.18 168.42 2301.5 160.5Z" fill="#D4391C"/>
<path opacity="0.942" fill-rule="evenodd" clip-rule="evenodd" d="M2046.5 164.5C2075.83 164.5 2105.17 164.5 2134.5 164.5C2134.5 171.5 2134.5 178.5 2134.5 185.5C2123.5 185.5 2112.5 185.5 2101.5 185.5C2101.5 212.833 2101.5 240.167 2101.5 267.5C2090.17 267.5 2078.83 267.5 2067.5 267.5C2067.5 260.5 2067.5 253.5 2067.5 246.5C2071.83 246.5 2076.17 246.5 2080.5 246.5C2080.5 226.167 2080.5 205.833 2080.5 185.5C2069.17 185.5 2057.83 185.5 2046.5 185.5C2046.5 178.5 2046.5 171.5 2046.5 164.5Z" fill="#D4391C"/>
<path opacity="0.927" fill-rule="evenodd" clip-rule="evenodd" d="M2052.5 192.5C2058.5 192.5 2064.5 192.5 2070.5 192.5C2070.77 215.934 2067.77 238.934 2061.5 261.5C2054.5 261.5 2047.5 261.5 2040.5 261.5C2048.06 239.135 2052.06 216.135 2052.5 192.5Z" fill="#D4391C"/>
<path opacity="0.938" fill-rule="evenodd" clip-rule="evenodd" d="M2105.5 193.5C2112.5 193.5 2119.5 193.5 2126.5 193.5C2132.12 215.807 2135.12 238.474 2135.5 261.5C2129.17 261.5 2122.83 261.5 2116.5 261.5C2116.29 238.257 2112.63 215.591 2105.5 193.5Z" fill="#D4391C"/>
<path opacity="0.928" fill-rule="evenodd" clip-rule="evenodd" d="M2354.5 194.5C2361.83 194.5 2369.17 194.5 2376.5 194.5C2377.24 213.634 2376.08 232.634 2373 251.5C2371.46 256.615 2369.63 261.62 2367.5 266.5C2359.52 267.66 2351.52 267.83 2343.5 267C2348.03 259.76 2351.19 251.922 2353 243.5C2354.39 227.205 2354.89 210.872 2354.5 194.5Z" fill="#D4391C"/>
<path opacity="0.954" fill-rule="evenodd" clip-rule="evenodd" d="M2385.5 194.5C2392.17 194.5 2398.83 194.5 2405.5 194.5C2405.5 217.833 2405.5 241.167 2405.5 264.5C2398.83 264.5 2392.17 264.5 2385.5 264.5C2385.5 241.167 2385.5 217.833 2385.5 194.5Z" fill="#D4391C"/>
<path opacity="0.926" fill-rule="evenodd" clip-rule="evenodd" d="M2415.5 194.5C2422.83 194.5 2430.17 194.5 2437.5 194.5C2437.5 212.167 2437.5 229.833 2437.5 247.5C2440.5 247.5 2443.5 247.5 2446.5 247.5C2446.5 254.167 2446.5 260.83 2446.5 267.5C2436.17 267.5 2425.83 267.5 2415.5 267.5C2415.5 243.167 2415.5 218.833 2415.5 194.5Z" fill="#D4391C"/>
<path opacity="0.932" fill-rule="evenodd" clip-rule="evenodd" d="M2319.5 198.5C2326.83 198.5 2334.17 198.5 2341.5 198.5C2338.99 221.557 2333.49 243.891 2325 265.5C2320.92 266.8 2316.59 267.46 2312 267.5C2307.83 267.33 2303.67 267.17 2299.5 267C2309.1 245.031 2315.77 222.197 2319.5 198.5Z" fill="#D4391C"/>
<path opacity="0.952" fill-rule="evenodd" clip-rule="evenodd" d="M1329.5 336.5C1337.8 337.37 1346.13 337.7 1354.5 337.5C1354.5 353.5 1354.5 369.5 1354.5 385.5C1360.51 385.67 1366.51 385.5 1372.5 385C1367.47 380.97 1362.8 376.63 1358.5 372C1366.05 361.72 1373.72 351.56 1381.5 341.5C1388.15 346.15 1394.48 351.15 1400.5 356.5C1394.08 366.42 1387.08 375.92 1379.5 385C1388.16 385.5 1396.83 385.67 1405.5 385.5C1405.5 393.83 1405.5 402.17 1405.5 410.5C1393.5 410.5 1381.5 410.5 1369.5 410.5C1369.05 421.6 1369.55 432.6 1371 443.5C1371.5 444 1372 444.5 1372.5 445C1375.83 445.67 1379.17 445.67 1382.5 445C1385.96 440.45 1387.29 435.28 1386.5 429.5C1394.68 431.56 1402.68 434.23 1410.5 437.5C1409.55 443.86 1408.38 450.19 1407 456.5C1404.24 466.25 1397.74 471.09 1387.5 471C1376.71 472.02 1366.04 471.36 1355.5 469C1348.95 466.42 1345.45 461.58 1345 454.5C1344.5 439.84 1344.33 425.17 1344.5 410.5C1340.5 410.5 1336.5 410.5 1332.5 410.5C1332.16 439.53 1319.33 460.87 1294 474.5C1286.7 468.36 1279.86 461.7 1273.5 454.5C1283.32 448.86 1292.15 441.86 1300 433.5C1304 426.67 1306.5 419.34 1307.5 411.5C1297.86 410.5 1288.19 410.17 1278.5 410.5C1278.5 402.17 1278.5 393.83 1278.5 385.5C1286.84 385.67 1295.17 385.5 1303.5 385C1296.49 375.32 1289.49 365.65 1282.5 356C1288.01 350.67 1294.01 345.84 1300.5 341.5C1309.37 350.87 1317.7 360.7 1325.5 371C1320.69 375.9 1315.69 380.57 1310.5 385C1316.82 385.5 1323.16 385.67 1329.5 385.5C1329.5 369.17 1329.5 352.83 1329.5 336.5Z" fill="#2B4A92"/>
<path opacity="0.961" fill-rule="evenodd" clip-rule="evenodd" d="M1654.5 336.5C1662.87 336.26 1671.21 336.59 1679.5 337.5C1679.5 342.5 1679.5 347.5 1679.5 352.5C1694.17 352.5 1708.83 352.5 1723.5 352.5C1723.5 360.5 1723.5 368.5 1723.5 376.5C1708.83 376.5 1694.17 376.5 1679.5 376.5C1679.5 380.5 1679.5 384.5 1679.5 388.5C1696.5 388.5 1713.5 388.5 1730.5 388.5C1730.5 396.5 1730.5 404.5 1730.5 412.5C1717.16 412.33 1703.83 412.5 1690.5 413C1697.22 418.72 1704.22 424.05 1711.5 429C1719.7 433.26 1727.7 437.76 1735.5 442.5C1730.19 450.47 1724.52 458.14 1718.5 465.5C1704.38 457.22 1691.55 447.22 1680 435.5C1679.5 448.16 1679.33 460.83 1679.5 473.5C1671.17 473.5 1662.83 473.5 1654.5 473.5C1654.67 460.83 1654.5 448.16 1654 435.5C1642.46 447.37 1629.46 457.37 1615 465.5C1612.57 463.99 1610.57 461.99 1609 459.5C1605.17 453.67 1601.33 447.83 1597.5 442C1614.52 434.83 1629.85 425.17 1643.5 413C1630.17 412.5 1616.84 412.33 1603.5 412.5C1603.5 404.5 1603.5 396.5 1603.5 388.5C1620.5 388.5 1637.5 388.5 1654.5 388.5C1654.5 384.5 1654.5 380.5 1654.5 376.5C1639.5 376.5 1624.5 376.5 1609.5 376.5C1609.5 368.5 1609.5 360.5 1609.5 352.5C1624.5 352.5 1639.5 352.5 1654.5 352.5C1654.5 347.17 1654.5 341.83 1654.5 336.5Z" fill="#2B4A92"/>
<path opacity="0.963" fill-rule="evenodd" clip-rule="evenodd" d="M1816.5 336.5C1824.83 336.5 1833.17 336.5 1841.5 336.5C1841.5 340.5 1841.5 344.5 1841.5 348.5C1857.5 348.5 1873.5 348.5 1889.5 348.5C1889.5 355.83 1889.5 363.17 1889.5 370.5C1883.49 370.33 1877.49 370.5 1871.5 371C1875.51 373.68 1878.85 377.01 1881.5 381C1876.51 386.66 1871.51 392.32 1866.5 398C1875.49 398.5 1884.49 398.67 1893.5 398.5C1893.5 405.83 1893.5 413.17 1893.5 420.5C1879.16 420.33 1864.83 420.5 1850.5 421C1854.66 424.25 1858.99 427.25 1863.5 430C1874.68 435.93 1886.01 441.26 1897.5 446C1894.13 453.92 1890.13 461.42 1885.5 468.5C1869.89 462.19 1855.56 453.86 1842.5 443.5C1841.5 453.48 1841.17 463.48 1841.5 473.5C1833.17 473.5 1824.83 473.5 1816.5 473.5C1816.67 463.16 1816.5 452.83 1816 442.5C1802.47 452.94 1787.8 461.6 1772 468.5C1766.98 461.63 1762.81 454.13 1759.5 446C1770.9 441.07 1782.24 435.74 1793.5 430C1798.01 427.25 1802.34 424.25 1806.5 421C1792.17 420.5 1777.84 420.33 1763.5 420.5C1763.5 413.17 1763.5 405.83 1763.5 398.5C1772.19 398.83 1780.86 398.5 1789.5 397.5C1784.83 391.83 1780.17 386.17 1775.5 380.5C1778.35 376.81 1781.69 373.65 1785.5 371C1779.84 370.5 1774.18 370.33 1768.5 370.5C1768.5 363.17 1768.5 355.83 1768.5 348.5C1784.5 348.5 1800.5 348.5 1816.5 348.5C1816.5 344.5 1816.5 340.5 1816.5 336.5ZM1796.5 371.5C1802.98 370.51 1809.65 370.18 1816.5 370.5C1816.5 379.83 1816.5 389.17 1816.5 398.5C1810.49 398.67 1804.49 398.5 1798.5 398C1802.98 394.69 1806.98 390.85 1810.5 386.5C1806.52 380.85 1801.85 375.85 1796.5 371.5ZM1841.5 370.5C1847.87 370.17 1854.2 370.5 1860.5 371.5C1855.65 376.52 1850.98 381.68 1846.5 387C1850.8 390.3 1854.8 393.96 1858.5 398C1852.84 398.5 1847.18 398.67 1841.5 398.5C1841.5 389.17 1841.5 379.83 1841.5 370.5Z" fill="#2B4A92"/>
<path opacity="0.962" fill-rule="evenodd" clip-rule="evenodd" d="M1448.5 340.5C1485.5 340.5 1522.5 340.5 1559.5 340.5C1559.67 348.17 1559.5 355.84 1559 363.5C1546.92 372.79 1534.76 381.95 1522.5 391C1537.5 391.5 1552.5 391.67 1567.5 391.5C1567.67 400.17 1567.5 408.84 1567 417.5C1562.74 425.01 1558.74 432.68 1555 440.5C1553.01 444.31 1550.51 447.64 1547.5 450.5C1540.39 446.57 1533.39 442.4 1526.5 438C1531.56 430.6 1536.23 422.93 1540.5 415C1532.51 414.5 1524.51 414.33 1516.5 414.5C1516.67 429.17 1516.5 443.84 1516 458.5C1514.96 465.87 1510.8 470.37 1503.5 472C1494.86 473.77 1486.2 474.27 1477.5 473.5C1474.91 465.62 1472.24 457.79 1469.5 450C1475.19 449.53 1480.86 448.86 1486.5 448C1487.93 447.53 1489.1 446.7 1490 445.5C1491.43 435.25 1491.93 424.91 1491.5 414.5C1474.5 414.5 1457.5 414.5 1440.5 414.5C1440.5 406.83 1440.5 399.17 1440.5 391.5C1454.84 391.67 1469.17 391.5 1483.5 391C1476.61 386.06 1469.95 380.9 1463.5 375.5C1466.61 370.89 1470.28 366.72 1474.5 363C1465.84 362.5 1457.17 362.33 1448.5 362.5C1448.5 355.17 1448.5 347.83 1448.5 340.5ZM1485.5 363.5C1497.66 362.34 1509.99 362.17 1522.5 363C1516.52 367.99 1510.18 372.49 1503.5 376.5C1497.46 372.12 1491.46 367.78 1485.5 363.5Z" fill="#2B4A92"/>
<path opacity="0.966" fill-rule="evenodd" clip-rule="evenodd" d="M730.5 392.5C893.17 392.5 1055.83 392.5 1218.5 392.5C1218.5 396.5 1218.5 400.5 1218.5 404.5C1055.83 404.5 893.17 404.5 730.5 404.5C730.5 400.5 730.5 396.5 730.5 392.5Z" fill="#2B4A92"/>
<path opacity="0.966" fill-rule="evenodd" clip-rule="evenodd" d="M1962.5 392.5C2125.17 392.5 2287.83 392.5 2450.5 392.5C2450.5 396.5 2450.5 400.5 2450.5 404.5C2287.83 404.5 2125.17 404.5 1962.5 404.5C1962.5 400.5 1962.5 396.5 1962.5 392.5Z" fill="#2B4A92"/>
<path opacity="0.945" fill-rule="evenodd" clip-rule="evenodd" d="M575.5 404.5C578.73 406.22 581.56 408.55 584 411.5C591.18 420.01 598.35 428.51 605.5 437C583.97 488.12 549.63 528.12 502.5 557C481.61 568.96 459.27 576.3 435.5 579C484.56 553.27 522.4 516.1 549 467.5C560.09 447.4 568.92 426.4 575.5 404.5Z" fill="#2B4A92"/>
</g>
<defs>
<clipPath id="clip0_5_2">
<rect width="2447" height="597" fill="white"/>
</clipPath>
</defs>
</svg>
