<svg width="288" height="305" viewBox="0 0 288 305" fill="none" xmlns="http://www.w3.org/2000/svg">
<path d="M287.912 112C287.912 173.856 237.768 224 175.912 224C114.056 224 63.9122 173.856 63.9122 112C63.9122 50.1441 114.056 0 175.912 0C237.768 0 287.912 50.1441 287.912 112ZM73.0845 112C73.0845 168.79 119.122 214.828 175.912 214.828C232.702 214.828 278.74 168.79 278.74 112C278.74 55.2099 232.702 9.17238 175.912 9.17238C119.122 9.17238 73.0845 55.2099 73.0845 112Z" fill="white"/>
<path d="M125.018 89.2291C120.611 89.261 116.914 93.0497 118.953 96.9571C120.191 99.3307 121.977 101.384 124.168 102.952C126.358 104.519 128.892 105.557 131.564 105.982C134.235 106.406 136.971 106.206 139.55 105.396C142.129 104.587 144.479 103.191 146.41 101.321C148.342 99.451 149.8 97.1597 150.669 94.6316C151.538 92.1036 151.793 89.4095 151.412 86.7666C150.781 82.3839 145.546 81.4335 141.899 83.9426L137.651 86.8643C135.475 88.3615 132.899 89.172 130.257 89.1911L125.018 89.2291Z" fill="white"/>
<path d="M226.512 89.2291C230.919 89.261 234.616 93.0497 232.578 96.9571C231.34 99.3307 229.553 101.384 227.363 102.952C225.172 104.519 222.639 105.557 219.967 105.982C217.295 106.406 214.56 106.206 211.981 105.396C209.402 104.587 207.052 103.191 205.121 101.321C203.189 99.451 201.73 97.1597 200.861 94.6316C199.992 92.1036 199.738 89.4095 200.118 86.7666C200.749 82.3839 205.984 81.4335 209.632 83.9426L213.879 86.8643C216.056 88.3615 218.631 89.172 221.274 89.1911L226.512 89.2291Z" fill="white"/>
<path d="M152.065 156.008C150.858 155.429 150.285 154.014 150.862 152.806C152.841 148.657 155.728 145.12 159.267 142.539C163.41 139.516 168.26 137.937 173.204 138.002C178.148 138.067 182.965 139.772 187.043 142.902C190.527 145.576 193.34 149.187 195.232 153.386C195.782 154.608 195.176 156.011 193.953 156.56C192.587 157.173 191 156.483 190.334 155.142C188.839 152.133 186.737 149.541 184.182 147.58C180.929 145.084 177.088 143.724 173.145 143.672C169.202 143.62 165.334 144.879 162.03 147.29C159.44 149.179 157.288 151.71 155.732 154.671C155.032 156.002 153.421 156.657 152.065 156.008Z" fill="white"/>
<rect x="102.634" y="193.553" width="12.7184" height="144.508" transform="rotate(45.2534 102.634 193.553)" fill="white"/>
<path d="M223.912 116L228.821 125.375H219.003L223.912 116Z" fill="white"/>
<ellipse cx="223.912" cy="129.125" rx="6" ry="6.875" fill="white"/>
</svg>
