<svg width="66.000000" height="33.000000" viewBox="0 0 66 33" fill="none" xmlns="http://www.w3.org/2000/svg" xmlns:xlink="http://www.w3.org/1999/xlink">

	<defs/>
	<rect id="Label" rx="8.250000" width="64.000000" height="31.000000" transform="translate(1.000000 1.000000)" fill="#FFFFFF" fill-opacity="1.000000"/>
	<path id="Step 2" d="M17.4785 16.1748Q18.1377 16.7812 19.585 17.1973Q20.7393 17.5312 21.1787 17.874Q21.3323 17.9938 21.4322 18.1483Q21.6182 18.4359 21.6182 18.8438Q21.6182 19.1953 21.4689 19.464Q21.352 19.6744 21.1436 19.834Q20.6689 20.1973 19.7783 20.1973Q18.8232 20.1973 18.252 19.749Q18.0132 19.5617 17.8742 19.3175Q17.6807 18.9775 17.6807 18.5273L16.5498 18.5273Q16.5498 18.9751 16.6993 19.3655Q16.7983 19.624 16.9629 19.8574Q16.9672 19.8635 16.9715 19.8695Q17.3838 20.4468 18.1377 20.7803Q18.2828 20.8445 18.4323 20.8964Q19.0669 21.1172 19.7783 21.1172Q21.1318 21.1172 21.9404 20.4932Q22.3289 20.1934 22.5307 19.7983Q22.749 19.3709 22.749 18.832Q22.749 18.1959 22.4716 17.7223Q22.4654 17.7117 22.459 17.7012Q22.1689 17.2207 21.5684 16.8604Q20.9678 16.5 19.9043 16.2012Q18.8408 15.9023 18.3984 15.542Q18.1238 15.3182 18.0196 15.0324Q17.9561 14.8578 17.9561 14.6602Q17.9561 14.2564 18.1356 13.9622Q18.2452 13.7824 18.4219 13.6436Q18.8877 13.2773 19.7197 13.2773Q20.6162 13.2773 21.1084 13.7197Q21.2424 13.8402 21.3399 13.9852Q21.6006 14.3727 21.6006 14.9355L22.7314 14.9355Q22.7314 14.575 22.6337 14.2433Q22.5393 13.9227 22.3535 13.6289Q22.2683 13.4942 22.1674 13.3726Q21.8204 12.9547 21.2871 12.6914Q20.5986 12.3516 19.7197 12.3516Q18.5176 12.3516 17.7359 12.9248Q17.6793 12.9663 17.625 13.0107Q17.1867 13.3694 16.9868 13.8312Q16.8193 14.2182 16.8193 14.6777Q16.8193 15.1152 16.9784 15.4841Q17.1431 15.8662 17.4785 16.1748ZM43.8896 21L49.4795 21L49.4795 20.1152L45.1963 20.1152L47.4814 17.6367Q49.0869 15.8965 49.0869 14.6367Q49.0869 13.9518 48.7853 13.447Q48.6303 13.1875 48.3955 12.9756Q48.3466 12.9315 48.2953 12.8905Q47.62 12.3516 46.5146 12.3516Q45.4665 12.3516 44.7667 12.8453Q44.6176 12.9505 44.4844 13.0781Q44.243 13.3093 44.0783 13.5861Q43.7256 14.1794 43.7256 14.9824L44.8096 14.9824Q44.8096 14.2493 45.1675 13.804Q45.2101 13.7511 45.2578 13.7021Q45.3235 13.6347 45.3969 13.5772Q45.8246 13.2422 46.5146 13.2422Q46.9934 13.2422 47.3361 13.4581Q47.4757 13.5461 47.5928 13.6699Q47.7037 13.7873 47.7842 13.9228Q47.9971 14.281 47.9971 14.7656Q47.9971 14.8924 47.9809 15.0171Q47.9337 15.3823 47.748 15.7295Q47.499 16.1953 46.8428 16.9395L43.8896 20.2207L43.8896 21ZM25.4912 14.6602L25.4912 13.125L24.4072 13.125L24.4072 14.6602L23.2529 14.6602L23.2529 15.498L24.4072 15.498L24.4072 19.4297Q24.4072 20.2383 24.7764 20.6777Q24.8468 20.7615 24.9301 20.8293Q25.284 21.1172 25.8721 21.1172Q26.2764 21.1172 26.7041 21L26.7041 20.1211Q26.376 20.1914 26.1885 20.1914Q25.8122 20.1914 25.6533 20.0056Q25.6513 20.0033 25.6494 20.001Q25.4912 19.8105 25.4912 19.4297L25.4912 15.498L26.6748 15.498L26.6748 14.6602L25.4912 14.6602ZM29.0916 20.7556Q29.7289 21.1172 30.5713 21.1172Q31.5195 21.1172 32.1856 20.6837Q32.6391 20.3886 32.9619 19.8926L32.2998 19.377Q32.0369 19.7172 31.6969 19.9395Q31.6504 19.9699 31.6025 19.998Q31.2041 20.2324 30.6299 20.2324Q30.1809 20.2324 29.8196 20.0545Q29.5301 19.912 29.2969 19.6553Q29.2215 19.5723 29.1565 19.4819Q28.7691 18.9434 28.749 18.1406L33.0439 18.1406L33.0439 17.6895Q33.0439 16.1719 32.3584 15.3574Q32.1558 15.1167 31.905 14.9471Q31.3074 14.543 30.4365 14.543Q30.1058 14.543 29.7959 14.6232Q29.3974 14.7263 29.0332 14.9619Q28.8564 15.0763 28.7009 15.2148Q28.2873 15.5833 28.0254 16.1221Q27.665 16.8633 27.665 17.8066L27.665 18.0059Q27.665 19.1777 28.2173 19.9594Q28.3333 20.1236 28.4736 20.2705Q28.7538 20.5639 29.0916 20.7556ZM38.9912 20.2324Q39.6533 19.3477 39.6533 17.9004L39.6533 17.8008Q39.6533 16.2656 38.9883 15.4043Q38.6974 15.0275 38.315 14.8155Q37.8234 14.543 37.1807 14.543Q36.4188 14.543 35.8727 14.8862Q35.5746 15.0736 35.3408 15.3633L35.2881 14.6602L34.2979 14.6602L34.2979 23.4375L35.3818 23.4375L35.3818 20.3848Q35.5609 20.5828 35.7759 20.7273Q36.3561 21.1172 37.1982 21.1172Q37.7962 21.1172 38.2631 20.8698Q38.6792 20.6494 38.9912 20.2324ZM29.8243 15.5568Q30.1032 15.4336 30.4365 15.4336Q30.8919 15.4336 31.2211 15.6374Q31.3832 15.7378 31.5146 15.8877Q31.9131 16.3418 31.96 17.168L31.96 17.25L28.7842 17.25Q28.8896 16.3887 29.335 15.9111Q29.5541 15.6761 29.8243 15.5568ZM38.1123 16.084Q38.5693 16.7051 38.5693 17.7773Q38.5693 18.9961 38.1094 19.6143Q37.8859 19.9146 37.5869 20.0691Q37.2707 20.2324 36.8701 20.2324Q36.3616 20.2324 35.9859 20.009Q35.6213 19.7923 35.3818 19.3652L35.3818 16.3359Q35.6366 15.884 36.0233 15.666Q36.3836 15.4629 36.8584 15.4629Q37.2889 15.4629 37.6203 15.6442Q37.9022 15.7985 38.1123 16.084Z" fill="#121D50" fill-opacity="1.000000" fill-rule="evenodd"/>
	<rect id="Label" rx="8.250000" width="64.000000" height="31.000000" transform="translate(1.000000 1.000000)" stroke="#EDF0F3" stroke-opacity="1.000000" stroke-width="2.000000"/>
</svg>
