<svg width="66.000000" height="33.000000" viewBox="0 0 66 33" fill="none" xmlns="http://www.w3.org/2000/svg" xmlns:xlink="http://www.w3.org/1999/xlink">
	<defs/>
	<rect id="Label" rx="8.250000" width="64.000000" height="31.000000" transform="translate(1.000000 1.000000)" fill="#FFFFFF" fill-opacity="1.000000"/>
	<path id="Step 3" d="M17.4785 16.1748Q18.1377 16.7812 19.585 17.1973Q20.7393 17.5312 21.1787 17.874Q21.3323 17.9938 21.4322 18.1483Q21.6182 18.4359 21.6182 18.8438Q21.6182 19.1953 21.4689 19.464Q21.352 19.6744 21.1436 19.834Q20.6689 20.1973 19.7783 20.1973Q18.8232 20.1973 18.252 19.749Q18.0132 19.5617 17.8742 19.3175Q17.6807 18.9775 17.6807 18.5273L16.5498 18.5273Q16.5498 18.9751 16.6993 19.3655Q16.7983 19.624 16.9629 19.8574Q16.9672 19.8635 16.9715 19.8695Q17.3838 20.4468 18.1377 20.7803Q18.2828 20.8445 18.4323 20.8964Q19.0669 21.1172 19.7783 21.1172Q21.1318 21.1172 21.9404 20.4932Q22.3289 20.1934 22.5307 19.7983Q22.749 19.3709 22.749 18.832Q22.749 18.1959 22.4716 17.7223Q22.4654 17.7117 22.459 17.7012Q22.1689 17.2207 21.5684 16.8604Q20.9678 16.5 19.9043 16.2012Q18.8408 15.9023 18.3984 15.542Q18.1238 15.3182 18.0196 15.0324Q17.9561 14.8578 17.9561 14.6602Q17.9561 14.2564 18.1356 13.9622Q18.2452 13.7824 18.4219 13.6436Q18.8877 13.2773 19.7197 13.2773Q20.6162 13.2773 21.1084 13.7197Q21.2424 13.8402 21.3399 13.9852Q21.6006 14.3727 21.6006 14.9355L22.7314 14.9355Q22.7314 14.575 22.6337 14.2433Q22.5393 13.9227 22.3535 13.6289Q22.2683 13.4942 22.1674 13.3726Q21.8204 12.9547 21.2871 12.6914Q20.5986 12.3516 19.7197 12.3516Q18.5176 12.3516 17.7359 12.9248Q17.6793 12.9663 17.625 13.0107Q17.1867 13.3694 16.9868 13.8312Q16.8193 14.2182 16.8193 14.6777Q16.8193 15.1152 16.9784 15.4841Q17.1431 15.8662 17.4785 16.1748ZM46.2803 16.207L45.4658 16.207L45.4658 17.0918L46.2803 17.0918Q47.1416 17.1035 47.5986 17.502Q47.6976 17.5883 47.7752 17.6908Q48.0557 18.0616 48.0557 18.6445Q48.0557 19.3446 47.7096 19.7473Q47.6763 19.7862 47.6396 19.8223Q47.6196 19.842 47.5987 19.8608Q47.1858 20.2324 46.4385 20.2324Q45.7941 20.2324 45.3773 19.9244Q45.3166 19.8795 45.2607 19.8281Q45.1216 19.7001 45.0265 19.5451Q44.8213 19.2105 44.8213 18.75L43.7314 18.75Q43.7314 19.3894 44.0021 19.8792Q44.1829 20.2063 44.4844 20.4668Q44.5876 20.5559 44.6992 20.6329Q45.4019 21.1172 46.4385 21.1172Q47.4284 21.1172 48.1119 20.6596Q48.2577 20.5619 48.3896 20.4434Q48.6207 20.2358 48.7806 19.9831Q49.1396 19.4157 49.1396 18.6211Q49.1396 17.9869 48.8609 17.5186Q48.8125 17.4375 48.7559 17.3613Q48.6976 17.2831 48.632 17.2116Q48.2654 16.8119 47.6689 16.623Q48.0934 16.4469 48.396 16.1476Q48.5363 16.0089 48.6504 15.8438Q48.9569 15.4001 49.0027 14.931Q49.0107 14.8487 49.0107 14.7656Q49.0107 13.8694 48.5846 13.2827Q48.4702 13.1253 48.3252 12.9902Q48.2744 12.9429 48.2207 12.899Q47.5502 12.3516 46.4326 12.3516Q45.5753 12.3516 44.944 12.7293Q44.7339 12.8549 44.5488 13.0225Q44.1938 13.3438 44.0088 13.7438Q43.8076 14.1789 43.8076 14.707L44.8916 14.707Q44.8916 14.2376 45.1022 13.8992Q45.1886 13.7604 45.3105 13.6436Q45.3834 13.5738 45.4648 13.5161Q45.8517 13.2422 46.4326 13.2422Q47.1768 13.2422 47.5503 13.6143Q47.9268 13.9893 47.9268 14.7422Q47.9268 15.199 47.7212 15.5271Q47.6262 15.6787 47.4873 15.8027Q47.4781 15.811 47.4687 15.8191Q47.0317 16.1956 46.2803 16.207ZM25.4912 14.6602L25.4912 13.125L24.4072 13.125L24.4072 14.6602L23.2529 14.6602L23.2529 15.498L24.4072 15.498L24.4072 19.4297Q24.4072 20.2383 24.7764 20.6777Q24.8468 20.7615 24.9301 20.8293Q25.284 21.1172 25.8721 21.1172Q26.2764 21.1172 26.7041 21L26.7041 20.1211Q26.376 20.1914 26.1885 20.1914Q25.8122 20.1914 25.6533 20.0056Q25.6513 20.0033 25.6494 20.001Q25.4912 19.8105 25.4912 19.4297L25.4912 15.498L26.6748 15.498L26.6748 14.6602L25.4912 14.6602ZM29.0916 20.7556Q29.7289 21.1172 30.5713 21.1172Q31.5195 21.1172 32.1856 20.6837Q32.6391 20.3886 32.9619 19.8926L32.2998 19.377Q32.0369 19.7172 31.6969 19.9395Q31.6504 19.9699 31.6025 19.998Q31.2041 20.2324 30.6299 20.2324Q30.1809 20.2324 29.8196 20.0545Q29.5301 19.912 29.2969 19.6553Q29.2215 19.5723 29.1565 19.4819Q28.7691 18.9434 28.749 18.1406L33.0439 18.1406L33.0439 17.6895Q33.0439 16.1719 32.3584 15.3574Q32.1558 15.1167 31.905 14.9471Q31.3074 14.543 30.4365 14.543Q30.1058 14.543 29.7959 14.6232Q29.3974 14.7263 29.0332 14.9619Q28.8564 15.0763 28.7009 15.2148Q28.2873 15.5833 28.0254 16.1221Q27.665 16.8633 27.665 17.8066L27.665 18.0059Q27.665 19.1777 28.2173 19.9594Q28.3333 20.1236 28.4736 20.2705Q28.7538 20.5639 29.0916 20.7556ZM38.9912 20.2324Q39.6533 19.3477 39.6533 17.9004L39.6533 17.8008Q39.6533 16.2656 38.9883 15.4043Q38.6974 15.0275 38.315 14.8155Q37.8234 14.543 37.1807 14.543Q36.4188 14.543 35.8727 14.8862Q35.5746 15.0736 35.3408 15.3633L35.2881 14.6602L34.2979 14.6602L34.2979 23.4375L35.3818 23.4375L35.3818 20.3848Q35.5609 20.5828 35.7759 20.7273Q36.3561 21.1172 37.1982 21.1172Q37.7962 21.1172 38.2631 20.8698Q38.6792 20.6494 38.9912 20.2324ZM29.8243 15.5568Q30.1032 15.4336 30.4365 15.4336Q30.8919 15.4336 31.2211 15.6374Q31.3832 15.7378 31.5146 15.8877Q31.9131 16.3418 31.96 17.168L31.96 17.25L28.7842 17.25Q28.8896 16.3887 29.335 15.9111Q29.5541 15.6761 29.8243 15.5568ZM38.1123 16.084Q38.5693 16.7051 38.5693 17.7773Q38.5693 18.9961 38.1094 19.6143Q37.8859 19.9146 37.5869 20.0691Q37.2707 20.2324 36.8701 20.2324Q36.3616 20.2324 35.9859 20.009Q35.6213 19.7923 35.3818 19.3652L35.3818 16.3359Q35.6366 15.884 36.0233 15.666Q36.3836 15.4629 36.8584 15.4629Q37.2889 15.4629 37.6203 15.6442Q37.9022 15.7985 38.1123 16.084Z" fill="#121D50" fill-opacity="1.000000" fill-rule="evenodd"/>
	<rect id="Label" rx="8.250000" width="64.000000" height="31.000000" transform="translate(1.000000 1.000000)" stroke="#EDF0F3" stroke-opacity="1.000000" stroke-width="2.000000"/>
</svg>
