<svg width="512" height="512" viewBox="0 0 512 512" fill="none" xmlns="http://www.w3.org/2000/svg">
<rect width="512" height="512" rx="75" fill="#4FC0E8"/>
<path d="M429.932 353.085C429.305 342.981 424.395 333.618 416.459 327.4L369.977 290.972C357.179 280.932 339.352 281.004 326.631 291.129L316.294 299.353C308.11 305.875 296.352 305.184 288.968 297.744L205.825 214.027C198.43 206.58 197.742 194.731 204.227 186.464L212.394 176.06C222.435 163.251 222.5 145.321 212.55 132.454L176.372 85.6499C170.192 77.6533 160.884 72.7049 150.834 72.0773C140.775 71.4007 130.941 75.1953 123.818 82.367L94.1275 112.267C81.4099 125.069 50.5865 177.598 187.841 315.803C275.013 403.578 328.086 422 357.26 422C374.634 422 384.668 415.563 390.03 410.166L419.721 380.274C426.835 373.101 430.556 363.196 429.932 353.085ZM409.445 369.975L379.754 399.867C376.334 403.306 369.655 407.415 357.261 407.415C335.624 407.415 286.183 394.178 198.118 305.505C96.4849 203.168 84.1153 142.999 104.405 122.562L134.095 92.6626C137.969 88.7679 143.216 86.5887 148.658 86.5887C149.083 86.5887 149.508 86.6035 149.935 86.632C155.824 86.9953 161.281 89.9001 164.91 94.5933L201.092 141.398C206.939 148.959 206.9 159.505 200.996 167.031L192.832 177.435C181.802 191.499 182.971 211.657 195.551 224.324L278.694 308.041C291.283 320.723 311.321 321.897 325.305 310.789L335.644 302.566C343.097 296.621 353.546 296.592 361.054 302.467L407.533 338.895C412.196 342.547 415.081 348.052 415.449 353.991C415.815 359.935 413.625 365.759 409.445 369.975Z" fill="#F6F6F6"/>
<path fill-rule="evenodd" clip-rule="evenodd" d="M435.921 352.713L435.921 352.716C436.65 364.53 432.304 376.108 423.981 384.499L423.978 384.502L394.287 414.394C387.855 420.868 376.31 428 357.26 428C325.624 428 271.076 408.128 183.584 320.031C114.665 250.635 87.1629 202.011 78.9179 168.44C70.5424 134.338 82.0839 115.878 89.87 108.039C89.8702 108.039 89.8705 108.039 89.8707 108.038L119.561 78.1393C127.879 69.7642 139.396 65.2987 151.222 66.0899C162.999 66.8294 173.891 72.6279 181.119 81.9805C181.119 81.9807 181.119 81.9804 181.119 81.9805L217.296 128.784C228.928 143.826 228.85 164.793 217.116 179.762L217.113 179.765L208.947 190.167C204.329 196.055 204.823 204.503 210.082 209.8L293.225 293.516L293.226 293.518C298.459 298.789 306.77 299.271 312.555 294.661L322.894 286.435C322.895 286.434 322.895 286.434 322.895 286.434C337.789 274.58 358.692 274.495 373.679 286.25M369.977 290.972L416.459 327.4C424.395 333.618 429.305 342.981 429.932 353.085C430.556 363.196 426.835 373.101 419.721 380.274L390.03 410.166C384.668 415.563 374.634 422 357.26 422C328.086 422 275.013 403.578 187.841 315.803C50.5865 177.598 81.4099 125.069 94.1275 112.267L123.818 82.367C130.941 75.1953 140.775 71.4007 150.834 72.0773C160.884 72.7049 170.192 77.6533 176.372 85.6499L212.55 132.454C222.5 145.321 222.435 163.251 212.394 176.06L204.227 186.464C197.742 194.731 198.43 206.58 205.825 214.027L288.968 297.744C296.352 305.184 308.11 305.875 316.294 299.353L326.631 291.129C339.352 281.004 357.179 280.932 369.977 290.972ZM373.681 286.251L420.16 322.677C420.16 322.678 420.16 322.677 420.16 322.677C429.451 329.957 435.188 340.908 435.921 352.713M149.935 86.632C149.508 86.6035 149.083 86.5887 148.658 86.5887C143.216 86.5887 137.969 88.7679 134.095 92.6626L104.405 122.562C84.1153 142.999 96.4849 203.168 198.118 305.505C286.183 394.178 335.624 407.415 357.261 407.415C369.655 407.415 376.334 403.306 379.754 399.867L409.445 369.975C413.625 365.759 415.815 359.935 415.449 353.991C415.081 348.052 412.196 342.547 407.533 338.895L361.054 302.467C353.546 296.592 343.097 296.621 335.644 302.566L325.305 310.789C311.321 321.897 291.283 320.723 278.694 308.041L195.551 224.324C182.971 211.657 181.802 191.499 192.832 177.435L200.996 167.031C206.9 159.505 206.939 148.959 201.092 141.398L164.91 94.5933C161.281 89.9001 155.824 86.9953 149.935 86.632ZM160.163 98.2635C157.582 94.9257 153.715 92.8766 149.565 92.6206L149.55 92.6196L149.534 92.6186C149.236 92.5987 148.944 92.5887 148.658 92.5887C144.819 92.5887 141.102 94.1268 138.35 96.8926C138.35 96.8929 138.35 96.8932 138.35 96.8935L108.663 126.79C108.662 126.79 108.663 126.789 108.663 126.79C101.283 134.223 98.0043 151.048 111.04 180.922C123.88 210.347 151.809 250.361 202.375 301.277C290.073 389.58 338.048 401.415 357.261 401.415C368.181 401.415 373.29 397.859 375.5 395.636L405.184 365.751C408.157 362.752 409.722 358.6 409.46 354.36C409.198 350.123 407.138 346.207 403.833 343.619L403.832 343.617L357.357 307.192C357.356 307.192 357.355 307.191 357.355 307.191C352.026 303.023 344.656 303.052 339.386 307.256L329.037 315.488C312.66 328.497 289.18 327.12 274.436 312.268L191.293 228.552C176.577 213.733 175.216 190.174 188.111 173.732L188.112 173.731L196.275 163.328C196.276 163.328 196.276 163.328 196.276 163.327C200.485 157.961 200.51 150.453 196.346 145.068L160.163 98.2635Z" fill="#F6F6F6"/>
</svg>